# This file uses centimeters as units for non-parametric coordinates.

mtllib widebox.mtl
g default
v -0.276240 -1.739732 -2.092405
v 0.732547 -1.739732 -1.438844
v -0.276240 0.595682 -2.092405
v 0.732547 0.595682 -1.438844
v 0.377321 0.595682 -3.101193
v 1.386108 0.595682 -2.447632
v 0.377321 -1.739732 -3.101193
v 1.386108 -1.739732 -2.447632
vt 0.375000 0.000000
vt 0.625000 0.000000
vt 0.375000 0.250000
vt 0.625000 0.250000
vt 0.375000 0.500000
vt 0.625000 0.500000
vt 0.375000 0.750000
vt 0.625000 0.750000
vt 0.375000 1.000000
vt 0.625000 1.000000
vt 0.875000 0.000000
vt 0.875000 0.250000
vt 0.125000 0.000000
vt 0.125000 0.250000
vn -0.543730 0.000000 0.839260
vn -0.543730 0.000000 0.839260
vn -0.543730 0.000000 0.839260
vn -0.543730 0.000000 0.839260
vn 0.000000 1.000000 0.000000
vn 0.000000 1.000000 0.000000
vn 0.000000 1.000000 0.000000
vn 0.000000 1.000000 0.000000
vn 0.543730 0.000000 -0.839260
vn 0.543730 0.000000 -0.839260
vn 0.543730 0.000000 -0.839260
vn 0.543730 0.000000 -0.839260
vn 0.000000 -1.000000 0.000000
vn 0.000000 -1.000000 0.000000
vn 0.000000 -1.000000 0.000000
vn 0.000000 -1.000000 0.000000
vn 0.839260 0.000000 0.543730
vn 0.839260 0.000000 0.543730
vn 0.839260 0.000000 0.543730
vn 0.839260 0.000000 0.543730
vn -0.839260 0.000000 -0.543730
vn -0.839260 0.000000 -0.543730
vn -0.839260 0.000000 -0.543730
vn -0.839260 0.000000 -0.543730
s off
g initialShadingGroup pCube6
f 1/1/1 2/2/2 4/4/3 3/3/4
f 6/6/5 5/5/6 3/3/7 4/4/8
f 5/5/9 6/6/10 8/8/11 7/7/12
f 2/10/13 1/9/14 7/7/15 8/8/16
f 6/12/17 4/4/18 2/2/19 8/11/20
f 3/3/21 5/14/22 7/13/23 1/1/24
